<svg width="173" height="137" viewBox="0 0 173 137" fill="none" xmlns="http://www.w3.org/2000/svg">
<path d="M173 12.6976H0.319092V137H173V12.6976Z" fill="#333333"/>
<path d="M2.65718 0H169.953C170.761 0 171.536 0.29192 172.108 0.811693C172.679 1.33147 173 2.03647 173 2.77154V16.8873H0V2.41708C0 1.77603 0.280044 1.16122 0.778362 0.707932C1.27668 0.254642 1.95245 0 2.65718 0Z" fill="#D3D3D3"/>
<path d="M9.95564 12.6655C11.9906 12.6655 13.6402 11.1648 13.6402 9.31375C13.6402 7.46267 11.9906 5.96204 9.95564 5.96204C7.92069 5.96204 6.271 7.46267 6.271 9.31375C6.271 11.1648 7.92069 12.6655 9.95564 12.6655Z" fill="#E84D4D"/>
<path d="M23.7371 12.6655C25.7721 12.6655 27.4218 11.1648 27.4218 9.31375C27.4218 7.46267 25.7721 5.96204 23.7371 5.96204C21.7022 5.96204 20.0525 7.46267 20.0525 9.31375C20.0525 11.1648 21.7022 12.6655 23.7371 12.6655Z" fill="#F2DD77"/>
<path d="M36.8818 12.6655C38.9168 12.6655 40.5665 11.1648 40.5665 9.31375C40.5665 7.46267 38.9168 5.96204 36.8818 5.96204C34.8468 5.96204 33.1973 7.46267 33.1973 9.31375C33.1973 11.1648 34.8468 12.6655 36.8818 12.6655Z" fill="#4EB785"/>
</svg>
