<svg width="622" height="527" viewBox="0 0 622 527" fill="none" xmlns="http://www.w3.org/2000/svg">
<path fill-rule="evenodd" clip-rule="evenodd" d="M535.012 492.015H489.748C483.813 469.897 540.791 469.289 535.012 492.015Z" fill="#BABCBE"/>
<path fill-rule="evenodd" clip-rule="evenodd" d="M489.842 485.464C494.403 471.585 530.046 470.741 534.887 485.464C527.76 488.718 520.102 490.395 512.365 490.395C504.628 490.395 496.969 488.718 489.842 485.464Z" fill="#E5E6E7"/>
<path fill-rule="evenodd" clip-rule="evenodd" d="M514.552 475.603C514.552 475.684 514.522 475.761 514.469 475.818C514.416 475.875 514.345 475.907 514.27 475.907H510.459C510.385 475.907 510.313 475.875 510.261 475.818C510.208 475.761 510.178 475.684 510.178 475.603V474.354C510.178 473.983 510.99 473.679 511.959 473.679H512.771C513.739 473.679 514.552 473.983 514.552 474.354V475.603Z" fill="#424243"/>
<path d="M551.287 491.88H473.442C472.924 491.88 472.505 492.334 472.505 492.893V493.602C472.505 494.162 472.924 494.615 473.442 494.615H551.287C551.804 494.615 552.224 494.162 552.224 493.602V492.893C552.224 492.334 551.804 491.88 551.287 491.88Z" fill="#B2B2D8"/>
<path d="M610.092 493.526H11.0935C5.01232 493.526 0.0825195 501.02 0.0825195 510.263C0.0825195 519.507 5.01232 527 11.0935 527H610.092C616.174 527 621.104 519.507 621.104 510.263C621.104 501.02 616.174 493.526 610.092 493.526Z" fill="#404040"/>
<path d="M365.889 484.519L358.174 431.366H263.054L255.338 484.519H365.889Z" fill="#47CF73"/>
<path d="M11.2143 437.512C8.4774 437.503 5.85547 436.322 3.92314 434.226C1.99081 432.131 0.905749 429.293 0.905762 426.334V362.984H620.322V426.334C620.314 429.296 619.222 432.134 617.285 434.228C615.347 436.323 612.722 437.503 609.982 437.512H11.2143Z" fill="white"/>
<path d="M619.541 363.895V426.402C619.541 429.143 618.534 431.771 616.742 433.709C614.949 435.647 612.518 436.735 609.983 436.735H11.2144C8.71187 436.682 6.32844 435.57 4.57615 433.638C2.82387 431.706 1.84254 429.108 1.84303 426.402V363.895H619.541ZM621.103 362.207H0V426.368C-1.16146e-05 429.551 1.16734 432.603 3.24612 434.857C5.32491 437.111 8.14549 438.381 11.0895 438.39H609.983C612.932 438.39 615.761 437.123 617.846 434.869C619.932 432.614 621.103 429.557 621.103 426.368V362.207Z" fill="#404040"/>
<path d="M604.015 0.000124399H17.2114C14.9757 -0.00876112 12.7602 0.458441 10.6916 1.37514C8.62289 2.29183 6.7415 3.64004 5.15481 5.34275C3.56812 7.04547 2.30721 9.06936 1.44407 11.2989C0.580927 13.5284 0.132457 15.9198 0.124268 18.3367V366.833H621.103V18.3367C621.094 15.9198 620.646 13.5284 619.783 11.2989C618.92 9.06936 617.659 7.04547 616.072 5.34275C614.485 3.64004 612.604 2.29183 610.535 1.37514C608.467 0.458441 606.251 -0.00876112 604.015 0.000124399Z" fill="#404040"/>
<path d="M598.767 21.9162H23.084V345.221H598.767V21.9162Z" fill="#2C303A"/>
<path d="M410.997 484.519H210.231V492.488H410.997V484.519Z" fill="#EAEAEA"/>
<path d="M310.599 416.035C317.223 416.035 322.594 410.275 322.594 403.169C322.594 396.063 317.223 390.303 310.599 390.303C303.974 390.303 298.603 396.063 298.603 403.169C298.603 410.275 303.974 416.035 310.599 416.035Z" fill="#333333"/>
</svg>
